<?xml version="1.0" standalone="no"?>
<!DOCTYPE svg PUBLIC "-//W3C//DTD SVG 20010904//EN"
 "http://www.w3.org/TR/2001/REC-SVG-20010904/DTD/svg10.dtd">
<svg version="1.0" xmlns="http://www.w3.org/2000/svg"
 width="512.000000pt" height="512.000000pt" viewBox="0 0 512.000000 512.000000"
 preserveAspectRatio="xMidYMid meet">
<metadata>
Created by potrace 1.14, written by Peter Selinger 2001-2017
</metadata>
<g transform="translate(0.000000,512.000000) scale(0.100000,-0.100000)"
fill="#000000" stroke="none">
<path d="M2025 4834 c-71 -18 -144 -63 -300 -187 -156 -124 -183 -138 -400
-203 -163 -48 -274 -103 -314 -153 -17 -22 -54 -88 -82 -148 -156 -332 -135
-299 -308 -476 -118 -122 -164 -177 -187 -222 -32 -67 -34 -92 -24 -445 l5
-165 -47 -145 c-86 -268 -94 -326 -58 -423 11 -29 65 -129 120 -221 111 -188
120 -212 150 -376 50 -277 66 -326 134 -393 31 -31 117 -91 211 -147 174 -104
234 -156 335 -290 204 -269 223 -279 571 -300 90 -6 187 -16 214 -24 28 -7
127 -47 220 -88 288 -128 299 -127 601 7 191 86 219 93 423 105 218 14 296 29
356 70 44 30 120 116 253 287 74 95 122 134 290 234 152 90 230 152 260 206
26 47 52 150 83 322 29 168 46 212 139 366 43 72 95 165 115 206 56 116 51
172 -41 464 -50 161 -54 195 -41 417 18 315 13 327 -222 566 -77 79 -153 167
-170 195 -16 29 -56 115 -90 192 -75 171 -120 240 -186 282 -31 21 -125 57
-250 98 -110 36 -222 78 -250 94 -27 16 -99 69 -159 116 -256 205 -269 208
-619 144 -88 -16 -178 -29 -202 -29 -24 0 -116 13 -205 30 -164 30 -289 43
-325 34z m293 -225 c192 -36 287 -37 447 -5 199 41 271 48 308 32 18 -7 102
-68 187 -135 178 -138 240 -172 435 -231 162 -50 233 -79 258 -107 9 -11 54
-100 100 -199 46 -98 96 -199 112 -224 15 -24 92 -109 170 -190 77 -80 149
-157 159 -171 15 -24 16 -55 14 -305 l-3 -279 54 -165 c30 -91 58 -191 64
-222 l11 -57 -64 -108 c-34 -59 -87 -149 -116 -198 -66 -114 -85 -171 -123
-375 -17 -91 -35 -182 -41 -202 -14 -48 -55 -81 -244 -194 -170 -102 -225
-151 -346 -309 -119 -155 -156 -193 -199 -204 -20 -6 -112 -15 -206 -21 -269
-17 -273 -19 -525 -131 -216 -97 -210 -97 -436 4 -240 106 -255 110 -519 127
-88 6 -175 13 -193 16 -43 8 -75 40 -216 217 -132 166 -182 208 -377 325 -75
45 -150 95 -167 110 -36 34 -43 58 -82 268 -44 238 -50 252 -199 499 -115 192
-115 186 -48 395 82 256 80 243 72 531 l-7 256 33 39 c18 21 92 100 164 174
72 74 145 158 162 185 17 28 64 124 105 214 41 94 86 179 103 197 26 27 61 42
235 98 236 76 270 94 465 246 76 60 153 116 170 125 36 18 71 14 283 -26z"/>
<path d="M1967 4546 c-48 -36 -126 -96 -174 -133 -111 -84 -206 -128 -408
-189 -110 -33 -168 -56 -187 -74 -17 -15 -59 -93 -108 -198 -43 -96 -94 -197
-112 -225 -18 -29 -104 -125 -192 -215 l-158 -163 8 -207 c12 -310 12 -309
-62 -547 -66 -213 -67 -220 -39 -274 13 -25 62 -111 109 -190 100 -167 119
-213 147 -359 56 -294 62 -316 87 -339 14 -12 96 -67 184 -120 175 -107 249
-168 329 -271 159 -202 193 -241 221 -251 17 -6 103 -15 192 -21 278 -18 304
-24 601 -155 101 -45 137 -56 165 -52 19 2 106 36 193 76 217 97 262 109 441
121 171 12 303 27 318 36 5 3 70 82 143 174 147 186 197 231 359 327 61 36
137 83 168 105 66 44 72 59 108 263 42 241 59 285 209 534 103 173 102 164 36
371 -76 238 -77 250 -70 532 l7 247 -139 143 c-211 218 -203 205 -359 536 -42
89 -65 127 -83 137 -15 7 -107 38 -206 70 -202 64 -262 91 -355 162 -36 27
-114 87 -174 133 l-110 83 -65 -7 c-37 -3 -124 -18 -196 -32 -173 -35 -295
-35 -475 0 -74 14 -164 29 -200 32 l-66 6 -87 -66z m673 -1165 c0 -5 -17 -18
-37 -28 -20 -10 -38 -23 -40 -29 -2 -5 21 -18 50 -27 51 -16 118 -70 104 -84
-4 -3 -44 2 -89 11 -46 10 -90 19 -100 21 -12 2 -22 -13 -37 -54 -24 -67 -123
-422 -119 -427 2 -1 35 4 73 12 77 16 146 15 152 -2 2 -7 -22 -13 -71 -16 -51
-3 -89 -12 -122 -29 -46 -23 -49 -27 -94 -139 -198 -490 -502 -810 -769 -810
-147 0 -218 106 -172 258 27 90 85 176 191 283 166 167 383 299 630 384 l65
22 70 209 c39 115 81 228 93 251 12 23 22 47 22 53 0 28 -291 1 -425 -41 -167
-51 -237 -116 -238 -221 -1 -40 4 -53 29 -79 16 -17 51 -42 77 -56 56 -28 56
-41 1 -23 -49 16 -113 75 -135 125 -24 52 -24 138 0 190 34 76 129 139 269
177 67 19 105 22 290 22 116 1 212 4 212 8 0 3 15 15 33 27 33 21 87 28 87 12z
m833 -693 c15 -6 27 -14 27 -18 0 -4 -38 -73 -84 -154 -96 -167 -125 -241
-133 -343 -5 -58 -2 -77 11 -98 23 -35 69 -33 128 4 67 42 195 158 258 234 47
56 80 82 80 62 0 -21 -70 -107 -164 -201 -133 -132 -204 -174 -296 -174 -69 0
-104 23 -120 78 -17 62 -15 85 25 267 6 29 6 29 -10 10 -9 -11 -39 -55 -66
-98 -97 -149 -199 -237 -275 -237 -49 0 -119 29 -150 61 -27 29 -29 35 -29
117 0 74 5 97 31 157 28 66 142 246 163 260 18 10 122 8 134 -4 8 -8 -2 -25
-40 -64 -78 -80 -130 -152 -167 -231 -94 -197 -52 -302 94 -235 99 45 286 270
425 512 67 116 69 118 99 112 17 -4 43 -11 59 -17z"/>
<path d="M2134 2651 c-251 -104 -456 -263 -583 -449 -81 -120 -110 -252 -68
-316 20 -30 71 -56 111 -56 176 0 431 319 610 764 20 50 36 91 36 93 0 7 -18
0 -106 -36z"/>
</g>
</svg>
